<svg width="29" height="28" viewBox="0 0 29 28" fill="none" xmlns="http://www.w3.org/2000/svg">
<mask id="mask0" style="mask-type:alpha" maskUnits="userSpaceOnUse" x="2" y="2" width="25" height="24">
<path fill-rule="evenodd" clip-rule="evenodd" d="M2.4215 4.32549C3.96021 1.48581 8.26451 1.73506 11.313 2.53158C13.7293 3.1629 14.2294 6.4681 16.2777 7.94585C18.9159 9.84915 23.1635 9.15985 24.6214 12.1328C26.4172 15.7949 26.808 20.955 24.1327 23.9642C21.4716 26.9576 16.7676 25.9316 12.8783 25.3419C9.92065 24.8935 6.91215 23.7024 5.26784 21.1042C3.8698 18.8952 5.81746 16.0891 5.3762 13.488C4.81704 10.1918 0.844597 7.23565 2.4215 4.32549Z" fill="#5B5B5B"/>
</mask>
<g mask="url(#mask0)">
<mask id="mask1" style="mask-type:alpha" maskUnits="userSpaceOnUse" x="0" y="0" width="29" height="29">
<path d="M1.01941 2.09021C1.55265 2.09021 1.98493 1.65794 1.98493 1.1247C1.98493 0.59145 1.55265 0.15918 1.01941 0.15918C0.486171 0.15918 0.053894 0.59145 0.053894 1.1247C0.053894 1.65794 0.486171 2.09021 1.01941 2.09021Z" fill="black"/>
<path d="M4.88148 1.1247C4.88148 1.65794 4.4492 2.09021 3.91596 2.09021C3.38272 2.09021 2.95045 1.65794 2.95045 1.1247C2.95045 0.59145 3.38272 0.15918 3.91596 0.15918C4.4492 0.15918 4.88148 0.59145 4.88148 1.1247Z" fill="black"/>
<path d="M9.70907 2.09021C10.2423 2.09021 10.6746 1.65794 10.6746 1.1247C10.6746 0.59145 10.2423 0.15918 9.70907 0.15918C9.17583 0.15918 8.74355 0.59145 8.74355 1.1247C8.74355 1.65794 9.17583 2.09021 9.70907 2.09021Z" fill="black"/>
<path d="M15.5022 2.09021C16.0354 2.09021 16.4677 1.65794 16.4677 1.1247C16.4677 0.59145 16.0354 0.15918 15.5022 0.15918C14.9689 0.15918 14.5367 0.59145 14.5367 1.1247C14.5367 1.65794 14.9689 2.09021 15.5022 2.09021Z" fill="black"/>
<path d="M27.0884 2.09021C27.6216 2.09021 28.0539 1.65794 28.0539 1.1247C28.0539 0.59145 27.6216 0.15918 27.0884 0.15918C26.5551 0.15918 26.1229 0.59145 26.1229 1.1247C26.1229 1.65794 26.5551 2.09021 27.0884 2.09021Z" fill="black"/>
<path d="M22.2608 1.1247C22.2608 1.65794 21.8285 2.09021 21.2953 2.09021C20.762 2.09021 20.3298 1.65794 20.3298 1.1247C20.3298 0.59145 20.762 0.15918 21.2953 0.15918C21.8285 0.15918 22.2608 0.59145 22.2608 1.1247Z" fill="black"/>
<path d="M24.1918 2.09021C24.7251 2.09021 25.1573 1.65794 25.1573 1.1247C25.1573 0.59145 24.7251 0.15918 24.1918 0.15918C23.6586 0.15918 23.2263 0.59145 23.2263 1.1247C23.2263 1.65794 23.6586 2.09021 24.1918 2.09021Z" fill="black"/>
<path d="M13.5711 1.1247C13.5711 1.65794 13.1389 2.09021 12.6056 2.09021C12.0724 2.09021 11.6401 1.65794 11.6401 1.1247C11.6401 0.59145 12.0724 0.15918 12.6056 0.15918C13.1389 0.15918 13.5711 0.59145 13.5711 1.1247Z" fill="black"/>
<path d="M18.3987 2.09021C18.932 2.09021 19.3642 1.65794 19.3642 1.1247C19.3642 0.59145 18.932 0.15918 18.3987 0.15918C17.8655 0.15918 17.4332 0.59145 17.4332 1.1247C17.4332 1.65794 17.8655 2.09021 18.3987 2.09021Z" fill="black"/>
<path d="M7.77803 1.1247C7.77803 1.65794 7.34575 2.09021 6.81251 2.09021C6.27927 2.09021 5.847 1.65794 5.847 1.1247C5.847 0.59145 6.27927 0.15918 6.81251 0.15918C7.34575 0.15918 7.77803 0.59145 7.77803 1.1247Z" fill="black"/>
<path d="M28.0539 12.7109C28.0539 13.2442 27.6216 13.6764 27.0884 13.6764C26.5551 13.6764 26.1229 13.2442 26.1229 12.7109C26.1229 12.1777 26.5551 11.7454 27.0884 11.7454C27.6216 11.7454 28.0539 12.1777 28.0539 12.7109Z" fill="black"/>
<path d="M15.5022 13.6764C16.0354 13.6764 16.4677 13.2442 16.4677 12.7109C16.4677 12.1777 16.0354 11.7454 15.5022 11.7454C14.9689 11.7454 14.5367 12.1777 14.5367 12.7109C14.5367 13.2442 14.9689 13.6764 15.5022 13.6764Z" fill="black"/>
<path d="M22.2608 12.7109C22.2608 13.2442 21.8285 13.6764 21.2953 13.6764C20.762 13.6764 20.3298 13.2442 20.3298 12.7109C20.3298 12.1777 20.762 11.7454 21.2953 11.7454C21.8285 11.7454 22.2608 12.1777 22.2608 12.7109Z" fill="black"/>
<path d="M9.70907 13.6764C10.2423 13.6764 10.6746 13.2442 10.6746 12.7109C10.6746 12.1777 10.2423 11.7454 9.70907 11.7454C9.17583 11.7454 8.74355 12.1777 8.74355 12.7109C8.74355 13.2442 9.17583 13.6764 9.70907 13.6764Z" fill="black"/>
<path d="M4.88148 12.7109C4.88148 13.2442 4.4492 13.6764 3.91596 13.6764C3.38272 13.6764 2.95045 13.2442 2.95045 12.7109C2.95045 12.1777 3.38272 11.7454 3.91596 11.7454C4.4492 11.7454 4.88148 12.1777 4.88148 12.7109Z" fill="black"/>
<path d="M24.1918 13.6764C24.7251 13.6764 25.1573 13.2442 25.1573 12.7109C25.1573 12.1777 24.7251 11.7454 24.1918 11.7454C23.6586 11.7454 23.2263 12.1777 23.2263 12.7109C23.2263 13.2442 23.6586 13.6764 24.1918 13.6764Z" fill="black"/>
<path d="M13.5711 12.7109C13.5711 13.2442 13.1389 13.6764 12.6056 13.6764C12.0724 13.6764 11.6401 13.2442 11.6401 12.7109C11.6401 12.1777 12.0724 11.7454 12.6056 11.7454C13.1389 11.7454 13.5711 12.1777 13.5711 12.7109Z" fill="black"/>
<path d="M18.3987 13.6764C18.932 13.6764 19.3642 13.2442 19.3642 12.7109C19.3642 12.1777 18.932 11.7454 18.3987 11.7454C17.8655 11.7454 17.4332 12.1777 17.4332 12.7109C17.4332 13.2442 17.8655 13.6764 18.3987 13.6764Z" fill="black"/>
<path d="M7.77803 12.7109C7.77803 13.2442 7.34575 13.6764 6.81251 13.6764C6.27927 13.6764 5.847 13.2442 5.847 12.7109C5.847 12.1777 6.27927 11.7454 6.81251 11.7454C7.34575 11.7454 7.77803 12.1777 7.77803 12.7109Z" fill="black"/>
<path d="M1.01941 13.6764C1.55265 13.6764 1.98493 13.2442 1.98493 12.7109C1.98493 12.1777 1.55265 11.7454 1.01941 11.7454C0.486171 11.7454 0.053894 12.1777 0.053894 12.7109C0.053894 13.2442 0.486171 13.6764 1.01941 13.6764Z" fill="black"/>
<path d="M28.0539 6.9178C28.0539 7.45105 27.6216 7.88332 27.0884 7.88332C26.5551 7.88332 26.1229 7.45105 26.1229 6.9178C26.1229 6.38455 26.5551 5.95228 27.0884 5.95228C27.6216 5.95228 28.0539 6.38455 28.0539 6.9178Z" fill="black"/>
<path d="M15.5022 7.88332C16.0354 7.88332 16.4677 7.45105 16.4677 6.9178C16.4677 6.38455 16.0354 5.95228 15.5022 5.95228C14.9689 5.95228 14.5367 6.38455 14.5367 6.9178C14.5367 7.45105 14.9689 7.88332 15.5022 7.88332Z" fill="black"/>
<path d="M22.2608 6.9178C22.2608 7.45105 21.8285 7.88332 21.2953 7.88332C20.762 7.88332 20.3298 7.45105 20.3298 6.9178C20.3298 6.38455 20.762 5.95228 21.2953 5.95228C21.8285 5.95228 22.2608 6.38455 22.2608 6.9178Z" fill="black"/>
<path d="M9.70907 7.88332C10.2423 7.88332 10.6746 7.45105 10.6746 6.9178C10.6746 6.38455 10.2423 5.95228 9.70907 5.95228C9.17583 5.95228 8.74355 6.38455 8.74355 6.9178C8.74355 7.45105 9.17583 7.88332 9.70907 7.88332Z" fill="black"/>
<path d="M4.88148 6.9178C4.88148 7.45105 4.4492 7.88332 3.91596 7.88332C3.38272 7.88332 2.95045 7.45105 2.95045 6.9178C2.95045 6.38455 3.38272 5.95228 3.91596 5.95228C4.4492 5.95228 4.88148 6.38455 4.88148 6.9178Z" fill="black"/>
<path d="M24.1918 7.88332C24.7251 7.88332 25.1573 7.45105 25.1573 6.9178C25.1573 6.38455 24.7251 5.95228 24.1918 5.95228C23.6586 5.95228 23.2263 6.38455 23.2263 6.9178C23.2263 7.45105 23.6586 7.88332 24.1918 7.88332Z" fill="black"/>
<path d="M13.5711 6.9178C13.5711 7.45105 13.1389 7.88332 12.6056 7.88332C12.0724 7.88332 11.6401 7.45105 11.6401 6.9178C11.6401 6.38455 12.0724 5.95228 12.6056 5.95228C13.1389 5.95228 13.5711 6.38455 13.5711 6.9178Z" fill="black"/>
<path d="M18.3987 7.88332C18.932 7.88332 19.3642 7.45105 19.3642 6.9178C19.3642 6.38455 18.932 5.95228 18.3987 5.95228C17.8655 5.95228 17.4332 6.38455 17.4332 6.9178C17.4332 7.45105 17.8655 7.88332 18.3987 7.88332Z" fill="black"/>
<path d="M7.77803 6.9178C7.77803 7.45105 7.34575 7.88332 6.81251 7.88332C6.27927 7.88332 5.847 7.45105 5.847 6.9178C5.847 6.38455 6.27927 5.95228 6.81251 5.95228C7.34575 5.95228 7.77803 6.38455 7.77803 6.9178Z" fill="black"/>
<path d="M1.01941 7.88332C1.55265 7.88332 1.98493 7.45105 1.98493 6.9178C1.98493 6.38455 1.55265 5.95228 1.01941 5.95228C0.486171 5.95228 0.053894 6.38455 0.053894 6.9178C0.053894 7.45105 0.486171 7.88332 1.01941 7.88332Z" fill="black"/>
<path d="M28.0539 18.504C28.0539 19.0373 27.6216 19.4695 27.0884 19.4695C26.5551 19.4695 26.1229 19.0373 26.1229 18.504C26.1229 17.9708 26.5551 17.5385 27.0884 17.5385C27.6216 17.5385 28.0539 17.9708 28.0539 18.504Z" fill="black"/>
<path d="M15.5022 19.4695C16.0354 19.4695 16.4677 19.0373 16.4677 18.504C16.4677 17.9708 16.0354 17.5385 15.5022 17.5385C14.9689 17.5385 14.5367 17.9708 14.5367 18.504C14.5367 19.0373 14.9689 19.4695 15.5022 19.4695Z" fill="black"/>
<path d="M22.2608 18.504C22.2608 19.0373 21.8285 19.4695 21.2953 19.4695C20.762 19.4695 20.3298 19.0373 20.3298 18.504C20.3298 17.9708 20.762 17.5385 21.2953 17.5385C21.8285 17.5385 22.2608 17.9708 22.2608 18.504Z" fill="black"/>
<path d="M9.70907 19.4695C10.2423 19.4695 10.6746 19.0373 10.6746 18.504C10.6746 17.9708 10.2423 17.5385 9.70907 17.5385C9.17583 17.5385 8.74355 17.9708 8.74355 18.504C8.74355 19.0373 9.17583 19.4695 9.70907 19.4695Z" fill="black"/>
<path d="M4.88148 18.504C4.88148 19.0373 4.4492 19.4695 3.91596 19.4695C3.38272 19.4695 2.95045 19.0373 2.95045 18.504C2.95045 17.9708 3.38272 17.5385 3.91596 17.5385C4.4492 17.5385 4.88148 17.9708 4.88148 18.504Z" fill="black"/>
<path d="M24.1918 19.4695C24.7251 19.4695 25.1573 19.0373 25.1573 18.504C25.1573 17.9708 24.7251 17.5385 24.1918 17.5385C23.6586 17.5385 23.2263 17.9708 23.2263 18.504C23.2263 19.0373 23.6586 19.4695 24.1918 19.4695Z" fill="black"/>
<path d="M13.5711 18.504C13.5711 19.0373 13.1389 19.4695 12.6056 19.4695C12.0724 19.4695 11.6401 19.0373 11.6401 18.504C11.6401 17.9708 12.0724 17.5385 12.6056 17.5385C13.1389 17.5385 13.5711 17.9708 13.5711 18.504Z" fill="black"/>
<path d="M18.3987 19.4695C18.932 19.4695 19.3642 19.0373 19.3642 18.504C19.3642 17.9708 18.932 17.5385 18.3987 17.5385C17.8655 17.5385 17.4332 17.9708 17.4332 18.504C17.4332 19.0373 17.8655 19.4695 18.3987 19.4695Z" fill="black"/>
<path d="M7.77803 18.504C7.77803 19.0373 7.34575 19.4695 6.81251 19.4695C6.27927 19.4695 5.847 19.0373 5.847 18.504C5.847 17.9708 6.27927 17.5385 6.81251 17.5385C7.34575 17.5385 7.77803 17.9708 7.77803 18.504Z" fill="black"/>
<path d="M1.01941 19.4695C1.55265 19.4695 1.98493 19.0373 1.98493 18.504C1.98493 17.9708 1.55265 17.5385 1.01941 17.5385C0.486171 17.5385 0.053894 17.9708 0.053894 18.504C0.053894 19.0373 0.486171 19.4695 1.01941 19.4695Z" fill="black"/>
<path d="M28.0539 24.2971C28.0539 24.8303 27.6216 25.2626 27.0884 25.2626C26.5551 25.2626 26.1229 24.8303 26.1229 24.2971C26.1229 23.7639 26.5551 23.3316 27.0884 23.3316C27.6216 23.3316 28.0539 23.7639 28.0539 24.2971Z" fill="black"/>
<path d="M15.5022 25.2626C16.0354 25.2626 16.4677 24.8303 16.4677 24.2971C16.4677 23.7639 16.0354 23.3316 15.5022 23.3316C14.9689 23.3316 14.5367 23.7639 14.5367 24.2971C14.5367 24.8303 14.9689 25.2626 15.5022 25.2626Z" fill="black"/>
<path d="M22.2608 24.2971C22.2608 24.8303 21.8285 25.2626 21.2953 25.2626C20.762 25.2626 20.3298 24.8303 20.3298 24.2971C20.3298 23.7639 20.762 23.3316 21.2953 23.3316C21.8285 23.3316 22.2608 23.7639 22.2608 24.2971Z" fill="black"/>
<path d="M9.70907 25.2626C10.2423 25.2626 10.6746 24.8303 10.6746 24.2971C10.6746 23.7639 10.2423 23.3316 9.70907 23.3316C9.17583 23.3316 8.74355 23.7639 8.74355 24.2971C8.74355 24.8303 9.17583 25.2626 9.70907 25.2626Z" fill="black"/>
<path d="M4.88148 24.2971C4.88148 24.8303 4.4492 25.2626 3.91596 25.2626C3.38272 25.2626 2.95045 24.8303 2.95045 24.2971C2.95045 23.7639 3.38272 23.3316 3.91596 23.3316C4.4492 23.3316 4.88148 23.7639 4.88148 24.2971Z" fill="black"/>
<path d="M24.1918 25.2626C24.7251 25.2626 25.1573 24.8303 25.1573 24.2971C25.1573 23.7639 24.7251 23.3316 24.1918 23.3316C23.6586 23.3316 23.2263 23.7639 23.2263 24.2971C23.2263 24.8303 23.6586 25.2626 24.1918 25.2626Z" fill="black"/>
<path d="M13.5711 24.2971C13.5711 24.8303 13.1389 25.2626 12.6056 25.2626C12.0724 25.2626 11.6401 24.8303 11.6401 24.2971C11.6401 23.7639 12.0724 23.3316 12.6056 23.3316C13.1389 23.3316 13.5711 23.7639 13.5711 24.2971Z" fill="black"/>
<path d="M18.3987 25.2626C18.932 25.2626 19.3642 24.8303 19.3642 24.2971C19.3642 23.7639 18.932 23.3316 18.3987 23.3316C17.8655 23.3316 17.4332 23.7639 17.4332 24.2971C17.4332 24.8303 17.8655 25.2626 18.3987 25.2626Z" fill="black"/>
<path d="M7.77803 24.2971C7.77803 24.8303 7.34575 25.2626 6.81251 25.2626C6.27927 25.2626 5.847 24.8303 5.847 24.2971C5.847 23.7639 6.27927 23.3316 6.81251 23.3316C7.34575 23.3316 7.77803 23.7639 7.77803 24.2971Z" fill="black"/>
<path d="M1.01941 25.2626C1.55265 25.2626 1.98493 24.8303 1.98493 24.2971C1.98493 23.7639 1.55265 23.3316 1.01941 23.3316C0.486171 23.3316 0.053894 23.7639 0.053894 24.2971C0.053894 24.8303 0.486171 25.2626 1.01941 25.2626Z" fill="black"/>
<path d="M28.0539 4.02125C28.0539 4.5545 27.6216 4.98677 27.0884 4.98677C26.5551 4.98677 26.1229 4.5545 26.1229 4.02125C26.1229 3.488 26.5551 3.05573 27.0884 3.05573C27.6216 3.05573 28.0539 3.488 28.0539 4.02125Z" fill="black"/>
<path d="M15.5022 4.98677C16.0354 4.98677 16.4677 4.5545 16.4677 4.02125C16.4677 3.488 16.0354 3.05573 15.5022 3.05573C14.9689 3.05573 14.5367 3.488 14.5367 4.02125C14.5367 4.5545 14.9689 4.98677 15.5022 4.98677Z" fill="black"/>
<path d="M22.2608 4.02125C22.2608 4.5545 21.8285 4.98677 21.2953 4.98677C20.762 4.98677 20.3298 4.5545 20.3298 4.02125C20.3298 3.488 20.762 3.05573 21.2953 3.05573C21.8285 3.05573 22.2608 3.488 22.2608 4.02125Z" fill="black"/>
<path d="M9.70907 4.98677C10.2423 4.98677 10.6746 4.5545 10.6746 4.02125C10.6746 3.488 10.2423 3.05573 9.70907 3.05573C9.17583 3.05573 8.74355 3.488 8.74355 4.02125C8.74355 4.5545 9.17583 4.98677 9.70907 4.98677Z" fill="black"/>
<path d="M4.88148 4.02125C4.88148 4.5545 4.4492 4.98677 3.91596 4.98677C3.38272 4.98677 2.95045 4.5545 2.95045 4.02125C2.95045 3.488 3.38272 3.05573 3.91596 3.05573C4.4492 3.05573 4.88148 3.488 4.88148 4.02125Z" fill="black"/>
<path d="M24.1918 4.98677C24.7251 4.98677 25.1573 4.5545 25.1573 4.02125C25.1573 3.488 24.7251 3.05573 24.1918 3.05573C23.6586 3.05573 23.2263 3.488 23.2263 4.02125C23.2263 4.5545 23.6586 4.98677 24.1918 4.98677Z" fill="black"/>
<path d="M13.5711 4.02125C13.5711 4.5545 13.1389 4.98677 12.6056 4.98677C12.0724 4.98677 11.6401 4.5545 11.6401 4.02125C11.6401 3.488 12.0724 3.05573 12.6056 3.05573C13.1389 3.05573 13.5711 3.488 13.5711 4.02125Z" fill="black"/>
<path d="M18.3987 4.98677C18.932 4.98677 19.3642 4.5545 19.3642 4.02125C19.3642 3.488 18.932 3.05573 18.3987 3.05573C17.8655 3.05573 17.4332 3.488 17.4332 4.02125C17.4332 4.5545 17.8655 4.98677 18.3987 4.98677Z" fill="black"/>
<path d="M7.77803 4.02125C7.77803 4.5545 7.34575 4.98677 6.81251 4.98677C6.27927 4.98677 5.847 4.5545 5.847 4.02125C5.847 3.488 6.27927 3.05573 6.81251 3.05573C7.34575 3.05573 7.77803 3.488 7.77803 4.02125Z" fill="black"/>
<path d="M1.01941 4.98677C1.55265 4.98677 1.98493 4.5545 1.98493 4.02125C1.98493 3.488 1.55265 3.05573 1.01941 3.05573C0.486171 3.05573 0.053894 3.488 0.053894 4.02125C0.053894 4.5545 0.486171 4.98677 1.01941 4.98677Z" fill="black"/>
<path d="M28.0539 15.6075C28.0539 16.1407 27.6216 16.573 27.0884 16.573C26.5551 16.573 26.1229 16.1407 26.1229 15.6075C26.1229 15.0742 26.5551 14.6419 27.0884 14.6419C27.6216 14.6419 28.0539 15.0742 28.0539 15.6075Z" fill="black"/>
<path d="M15.5022 16.573C16.0354 16.573 16.4677 16.1407 16.4677 15.6075C16.4677 15.0742 16.0354 14.6419 15.5022 14.6419C14.9689 14.6419 14.5367 15.0742 14.5367 15.6075C14.5367 16.1407 14.9689 16.573 15.5022 16.573Z" fill="black"/>
<path d="M22.2608 15.6075C22.2608 16.1407 21.8285 16.573 21.2953 16.573C20.762 16.573 20.3298 16.1407 20.3298 15.6075C20.3298 15.0742 20.762 14.6419 21.2953 14.6419C21.8285 14.6419 22.2608 15.0742 22.2608 15.6075Z" fill="black"/>
<path d="M9.70907 16.573C10.2423 16.573 10.6746 16.1407 10.6746 15.6075C10.6746 15.0742 10.2423 14.6419 9.70907 14.6419C9.17583 14.6419 8.74355 15.0742 8.74355 15.6075C8.74355 16.1407 9.17583 16.573 9.70907 16.573Z" fill="black"/>
<path d="M4.88148 15.6075C4.88148 16.1407 4.4492 16.573 3.91596 16.573C3.38272 16.573 2.95045 16.1407 2.95045 15.6075C2.95045 15.0742 3.38272 14.6419 3.91596 14.6419C4.4492 14.6419 4.88148 15.0742 4.88148 15.6075Z" fill="black"/>
<path d="M24.1918 16.573C24.7251 16.573 25.1573 16.1407 25.1573 15.6075C25.1573 15.0742 24.7251 14.6419 24.1918 14.6419C23.6586 14.6419 23.2263 15.0742 23.2263 15.6075C23.2263 16.1407 23.6586 16.573 24.1918 16.573Z" fill="black"/>
<path d="M13.5711 15.6075C13.5711 16.1407 13.1389 16.573 12.6056 16.573C12.0724 16.573 11.6401 16.1407 11.6401 15.6075C11.6401 15.0742 12.0724 14.6419 12.6056 14.6419C13.1389 14.6419 13.5711 15.0742 13.5711 15.6075Z" fill="black"/>
<path d="M18.3987 16.573C18.932 16.573 19.3642 16.1407 19.3642 15.6075C19.3642 15.0742 18.932 14.6419 18.3987 14.6419C17.8655 14.6419 17.4332 15.0742 17.4332 15.6075C17.4332 16.1407 17.8655 16.573 18.3987 16.573Z" fill="black"/>
<path d="M7.77803 15.6075C7.77803 16.1407 7.34575 16.573 6.81251 16.573C6.27927 16.573 5.847 16.1407 5.847 15.6075C5.847 15.0742 6.27927 14.6419 6.81251 14.6419C7.34575 14.6419 7.77803 15.0742 7.77803 15.6075Z" fill="black"/>
<path d="M1.01941 16.573C1.55265 16.573 1.98493 16.1407 1.98493 15.6075C1.98493 15.0742 1.55265 14.6419 1.01941 14.6419C0.486171 14.6419 0.053894 15.0742 0.053894 15.6075C0.053894 16.1407 0.486171 16.573 1.01941 16.573Z" fill="black"/>
<path d="M28.0539 9.81435C28.0539 10.3476 27.6216 10.7799 27.0884 10.7799C26.5551 10.7799 26.1229 10.3476 26.1229 9.81435C26.1229 9.28111 26.5551 8.84883 27.0884 8.84883C27.6216 8.84883 28.0539 9.28111 28.0539 9.81435Z" fill="black"/>
<path d="M15.5022 10.7799C16.0354 10.7799 16.4677 10.3476 16.4677 9.81435C16.4677 9.28111 16.0354 8.84883 15.5022 8.84883C14.9689 8.84883 14.5367 9.28111 14.5367 9.81435C14.5367 10.3476 14.9689 10.7799 15.5022 10.7799Z" fill="black"/>
<path d="M22.2608 9.81435C22.2608 10.3476 21.8285 10.7799 21.2953 10.7799C20.762 10.7799 20.3298 10.3476 20.3298 9.81435C20.3298 9.28111 20.762 8.84883 21.2953 8.84883C21.8285 8.84883 22.2608 9.28111 22.2608 9.81435Z" fill="black"/>
<path d="M9.70907 10.7799C10.2423 10.7799 10.6746 10.3476 10.6746 9.81435C10.6746 9.28111 10.2423 8.84883 9.70907 8.84883C9.17583 8.84883 8.74355 9.28111 8.74355 9.81435C8.74355 10.3476 9.17583 10.7799 9.70907 10.7799Z" fill="black"/>
<path d="M4.88148 9.81435C4.88148 10.3476 4.4492 10.7799 3.91596 10.7799C3.38272 10.7799 2.95045 10.3476 2.95045 9.81435C2.95045 9.28111 3.38272 8.84883 3.91596 8.84883C4.4492 8.84883 4.88148 9.28111 4.88148 9.81435Z" fill="black"/>
<path d="M24.1918 10.7799C24.7251 10.7799 25.1573 10.3476 25.1573 9.81435C25.1573 9.28111 24.7251 8.84883 24.1918 8.84883C23.6586 8.84883 23.2263 9.28111 23.2263 9.81435C23.2263 10.3476 23.6586 10.7799 24.1918 10.7799Z" fill="black"/>
<path d="M13.5711 9.81435C13.5711 10.3476 13.1389 10.7799 12.6056 10.7799C12.0724 10.7799 11.6401 10.3476 11.6401 9.81435C11.6401 9.28111 12.0724 8.84883 12.6056 8.84883C13.1389 8.84883 13.5711 9.28111 13.5711 9.81435Z" fill="black"/>
<path d="M18.3987 10.7799C18.932 10.7799 19.3642 10.3476 19.3642 9.81435C19.3642 9.28111 18.932 8.84883 18.3987 8.84883C17.8655 8.84883 17.4332 9.28111 17.4332 9.81435C17.4332 10.3476 17.8655 10.7799 18.3987 10.7799Z" fill="black"/>
<path d="M7.77803 9.81435C7.77803 10.3476 7.34575 10.7799 6.81251 10.7799C6.27927 10.7799 5.847 10.3476 5.847 9.81435C5.847 9.28111 6.27927 8.84883 6.81251 8.84883C7.34575 8.84883 7.77803 9.28111 7.77803 9.81435Z" fill="black"/>
<path d="M1.01941 10.7799C1.55265 10.7799 1.98493 10.3476 1.98493 9.81435C1.98493 9.28111 1.55265 8.84883 1.01941 8.84883C0.486171 8.84883 0.053894 9.28111 0.053894 9.81435C0.053894 10.3476 0.486171 10.7799 1.01941 10.7799Z" fill="black"/>
<path d="M28.0539 21.4006C28.0539 21.9338 27.6216 22.3661 27.0884 22.3661C26.5551 22.3661 26.1229 21.9338 26.1229 21.4006C26.1229 20.8673 26.5551 20.435 27.0884 20.435C27.6216 20.435 28.0539 20.8673 28.0539 21.4006Z" fill="black"/>
<path d="M15.5022 22.3661C16.0354 22.3661 16.4677 21.9338 16.4677 21.4006C16.4677 20.8673 16.0354 20.435 15.5022 20.435C14.9689 20.435 14.5367 20.8673 14.5367 21.4006C14.5367 21.9338 14.9689 22.3661 15.5022 22.3661Z" fill="black"/>
<path d="M22.2608 21.4006C22.2608 21.9338 21.8285 22.3661 21.2953 22.3661C20.762 22.3661 20.3298 21.9338 20.3298 21.4006C20.3298 20.8673 20.762 20.435 21.2953 20.435C21.8285 20.435 22.2608 20.8673 22.2608 21.4006Z" fill="black"/>
<path d="M9.70907 22.3661C10.2423 22.3661 10.6746 21.9338 10.6746 21.4006C10.6746 20.8673 10.2423 20.435 9.70907 20.435C9.17583 20.435 8.74355 20.8673 8.74355 21.4006C8.74355 21.9338 9.17583 22.3661 9.70907 22.3661Z" fill="black"/>
<path d="M4.88148 21.4006C4.88148 21.9338 4.4492 22.3661 3.91596 22.3661C3.38272 22.3661 2.95045 21.9338 2.95045 21.4006C2.95045 20.8673 3.38272 20.435 3.91596 20.435C4.4492 20.435 4.88148 20.8673 4.88148 21.4006Z" fill="black"/>
<path d="M24.1918 22.3661C24.7251 22.3661 25.1573 21.9338 25.1573 21.4006C25.1573 20.8673 24.7251 20.435 24.1918 20.435C23.6586 20.435 23.2263 20.8673 23.2263 21.4006C23.2263 21.9338 23.6586 22.3661 24.1918 22.3661Z" fill="black"/>
<path d="M13.5711 21.4006C13.5711 21.9338 13.1389 22.3661 12.6056 22.3661C12.0724 22.3661 11.6401 21.9338 11.6401 21.4006C11.6401 20.8673 12.0724 20.435 12.6056 20.435C13.1389 20.435 13.5711 20.8673 13.5711 21.4006Z" fill="black"/>
<path d="M18.3987 22.3661C18.932 22.3661 19.3642 21.9338 19.3642 21.4006C19.3642 20.8673 18.932 20.435 18.3987 20.435C17.8655 20.435 17.4332 20.8673 17.4332 21.4006C17.4332 21.9338 17.8655 22.3661 18.3987 22.3661Z" fill="black"/>
<path d="M7.77803 21.4006C7.77803 21.9338 7.34575 22.3661 6.81251 22.3661C6.27927 22.3661 5.847 21.9338 5.847 21.4006C5.847 20.8673 6.27927 20.435 6.81251 20.435C7.34575 20.435 7.77803 20.8673 7.77803 21.4006Z" fill="black"/>
<path d="M1.01941 22.3661C1.55265 22.3661 1.98493 21.9338 1.98493 21.4006C1.98493 20.8673 1.55265 20.435 1.01941 20.435C0.486171 20.435 0.053894 20.8673 0.053894 21.4006C0.053894 21.9338 0.486171 22.3661 1.01941 22.3661Z" fill="black"/>
<path d="M28.0539 27.1937C28.0539 27.7269 27.6216 28.1592 27.0884 28.1592C26.5551 28.1592 26.1229 27.7269 26.1229 27.1937C26.1229 26.6604 26.5551 26.2281 27.0884 26.2281C27.6216 26.2281 28.0539 26.6604 28.0539 27.1937Z" fill="black"/>
<path d="M15.5022 28.1592C16.0354 28.1592 16.4677 27.7269 16.4677 27.1937C16.4677 26.6604 16.0354 26.2281 15.5022 26.2281C14.9689 26.2281 14.5367 26.6604 14.5367 27.1937C14.5367 27.7269 14.9689 28.1592 15.5022 28.1592Z" fill="black"/>
<path d="M22.2608 27.1937C22.2608 27.7269 21.8285 28.1592 21.2953 28.1592C20.762 28.1592 20.3298 27.7269 20.3298 27.1937C20.3298 26.6604 20.762 26.2281 21.2953 26.2281C21.8285 26.2281 22.2608 26.6604 22.2608 27.1937Z" fill="black"/>
<path d="M9.70907 28.1592C10.2423 28.1592 10.6746 27.7269 10.6746 27.1937C10.6746 26.6604 10.2423 26.2281 9.70907 26.2281C9.17583 26.2281 8.74355 26.6604 8.74355 27.1937C8.74355 27.7269 9.17583 28.1592 9.70907 28.1592Z" fill="black"/>
<path d="M4.88148 27.1937C4.88148 27.7269 4.4492 28.1592 3.91596 28.1592C3.38272 28.1592 2.95045 27.7269 2.95045 27.1937C2.95045 26.6604 3.38272 26.2281 3.91596 26.2281C4.4492 26.2281 4.88148 26.6604 4.88148 27.1937Z" fill="black"/>
<path d="M24.1918 28.1592C24.7251 28.1592 25.1573 27.7269 25.1573 27.1937C25.1573 26.6604 24.7251 26.2281 24.1918 26.2281C23.6586 26.2281 23.2263 26.6604 23.2263 27.1937C23.2263 27.7269 23.6586 28.1592 24.1918 28.1592Z" fill="black"/>
<path d="M13.5711 27.1937C13.5711 27.7269 13.1389 28.1592 12.6056 28.1592C12.0724 28.1592 11.6401 27.7269 11.6401 27.1937C11.6401 26.6604 12.0724 26.2281 12.6056 26.2281C13.1389 26.2281 13.5711 26.6604 13.5711 27.1937Z" fill="black"/>
<path d="M18.3987 28.1592C18.932 28.1592 19.3642 27.7269 19.3642 27.1937C19.3642 26.6604 18.932 26.2281 18.3987 26.2281C17.8655 26.2281 17.4332 26.6604 17.4332 27.1937C17.4332 27.7269 17.8655 28.1592 18.3987 28.1592Z" fill="black"/>
<path d="M7.77803 27.1937C7.77803 27.7269 7.34575 28.1592 6.81251 28.1592C6.27927 28.1592 5.847 27.7269 5.847 27.1937C5.847 26.6604 6.27927 26.2281 6.81251 26.2281C7.34575 26.2281 7.77803 26.6604 7.77803 27.1937Z" fill="black"/>
<path d="M1.01941 28.1592C1.55265 28.1592 1.98493 27.7269 1.98493 27.1937C1.98493 26.6604 1.55265 26.2281 1.01941 26.2281C0.486171 26.2281 0.053894 26.6604 0.053894 27.1937C0.053894 27.7269 0.486171 28.1592 1.01941 28.1592Z" fill="black"/>
</mask>
<g mask="url(#mask1)">
<rect x="0.053894" width="28" height="28" fill="#F78D80"/>
</g>
</g>
<g clip-path="url(#clip0)">
<g clip-path="url(#clip1)">
<path d="M20.9289 13.1553H7.17889V14.9139H20.9289V13.1553Z" fill="black" stroke="black" stroke-miterlimit="10"/>
<path d="M20.9289 7.12573H19.1789V20.9435H20.9289V7.12573Z" fill="black" stroke="black" stroke-miterlimit="10"/>
<path d="M8.92889 7.12573H7.17889V20.9435H8.92889V7.12573Z" fill="black" stroke="black" stroke-miterlimit="10"/>
<path d="M23.9289 9.1355H22.1789V18.9335H23.9289V9.1355Z" fill="black" stroke="black" stroke-miterlimit="10"/>
<path d="M25.9289 13.1553H24.1789V14.9139H25.9289V13.1553Z" fill="black" stroke="black" stroke-miterlimit="10"/>
<path d="M5.92889 9.1355H4.17889V18.9335H5.92889V9.1355Z" fill="black" stroke="black" stroke-miterlimit="10"/>
<path d="M3.92889 13.1553H2.17889V14.9139H3.92889V13.1553Z" fill="black" stroke="black" stroke-miterlimit="10"/>
</g>
</g>
<defs>
<clipPath id="clip0">
<rect width="24" height="24" fill="white" transform="translate(2.05389 2)"/>
</clipPath>
<clipPath id="clip1">
<rect width="24" height="14.069" fill="white" transform="translate(2.05389 7)"/>
</clipPath>
</defs>
</svg>
